<?xml version="1.0" encoding="utf-8"?>
<!-- Generator: Adobe Illustrator 26.2.1, SVG Export Plug-In . SVG Version: 6.00 Build 0)  -->
<svg version="1.1" id="Layer_1" xmlns="http://www.w3.org/2000/svg" xmlns:xlink="http://www.w3.org/1999/xlink" x="0px" y="0px"
	 viewBox="0 0 205.3 77.2" style="enable-background:new 0 0 205.3 77.2;" xml:space="preserve">
<g>
	<path d="M37.6,51.1h-6.9V23.7H21v-5.7h16.6L37.6,51.1z"/>
	<path d="M55.5,38.8c0-7.8,3.9-12.7,10.1-12.7c3.6,0,6.3,1.9,7.5,4.6h0.1V17.9H80v33.2h-6.6v-4.2h-0.1c-1.2,2.7-4,4.6-7.7,4.6
		C59.4,51.5,55.5,46.6,55.5,38.8z M62.4,38.8c0,4.5,2.1,7.3,5.5,7.3c3.3,0,5.5-2.8,5.5-7.3c0-4.5-2.1-7.3-5.5-7.3
		C64.5,31.5,62.4,34.3,62.4,38.8z"/>
	<path d="M84.4,20.3c0-2,1.6-3.5,3.6-3.5c2,0,3.6,1.5,3.6,3.5c0,1.9-1.6,3.5-3.6,3.5C86,23.8,84.4,22.2,84.4,20.3z M84.6,26.5h6.7
		v24.7h-6.7V26.5z"/>
	<path d="M95.7,52.9h6.6c0.5,1.7,2.5,2.9,5,2.9c3.5,0,5.4-1.9,5.4-4.8v-4.3h-0.1c-1.2,2.6-4,4.4-7.6,4.4c-6,0-10-4.6-10-12.4
		c0-7.8,3.9-12.6,10.1-12.6c3.5,0,6.3,1.9,7.6,4.7h0.1v-4.3h6.6v24.3c0,5.9-4.9,9.6-12.3,9.6C100.6,60.4,96.2,57.3,95.7,52.9z
		 M112.7,38.8c0-4.4-2.1-7.3-5.5-7.3c-3.3,0-5.4,2.8-5.4,7.3c0,4.5,2.1,7.1,5.4,7.1C110.6,45.9,112.7,43.2,112.7,38.8z"/>
	<path d="M123.7,20.3c0-2,1.6-3.5,3.6-3.5c2,0,3.6,1.5,3.6,3.5c0,1.9-1.6,3.5-3.6,3.5C125.2,23.8,123.7,22.2,123.7,20.3z
		 M123.9,26.5h6.7v24.7h-6.7V26.5z"/>
	<path d="M143.6,20.8v5.7h4.6v5.1h-4.6v11.8c0,1.9,0.9,2.8,2.9,2.8c0.6,0,1.2,0,1.6-0.1V51c-0.7,0.2-1.8,0.3-3.2,0.3
		c-5.8,0-8.1-1.9-8.1-6.7v-13h-3.5v-5.1h3.5v-5.7H143.6z"/>
	<path d="M150.6,44c0-4.5,3.5-7.1,9.6-7.5l6.2-0.4v-1.6c0-2.3-1.6-3.6-4.1-3.6c-2.5,0-4.1,1.2-4.4,3.1h-6.1
		c0.3-4.8,4.3-8.1,10.9-8.1c6.3,0,10.4,3.3,10.4,8.2v17h-6.5v-3.8h-0.1c-1.4,2.6-4.4,4.2-7.5,4.2C154.2,51.5,150.6,48.5,150.6,44z
		 M166.4,42.1v-1.8l-5.2,0.3c-2.5,0.2-3.9,1.3-3.9,3.1c0,1.8,1.5,3,3.8,3C164,46.7,166.4,44.8,166.4,42.1z"/>
	<path d="M177.5,17.9h6.7v33.2h-6.7V17.9z"/>
	<rect x="39.5" y="17.9" width="6" height="5.7"/>
</g>
</svg>
